<svg width="39" height="32" viewBox="0 0 39 32" fill="none" xmlns="http://www.w3.org/2000/svg">
<path d="M13.197 28.6616C13.2052 27.7663 12.8568 26.9048 12.2286 26.2669C11.6004 25.6289 10.7443 25.2674 9.84896 25.2618C8.95383 25.2564 8.09324 25.6074 7.45722 26.2375C6.82126 26.8677 6.4623 27.7251 6.45949 28.6202C6.45669 29.5156 6.81047 30.3751 7.44254 31.0092C8.07442 31.643 8.93291 31.9996 9.82827 31.9996C10.7163 31.9996 11.5685 31.6488 12.1995 31.0238C12.8304 30.3986 13.1889 29.5496 13.197 28.6616ZM8.34458 28.6616C8.33639 28.2565 8.49096 27.865 8.7736 27.5747C9.05623 27.2843 9.44345 27.1193 9.84855 27.1165C10.2539 27.1139 10.6432 27.2737 10.9297 27.5602C11.2162 27.8467 11.376 28.2361 11.3732 28.6412C11.3704 29.0465 11.2055 29.4337 10.9151 29.7163C10.6249 29.9987 10.2334 30.1533 9.82831 30.1451C9.43486 30.1451 9.05736 29.9888 8.77925 29.7107C8.50092 29.4324 8.34458 29.0551 8.34458 28.6616Z" fill="black"/>
<path d="M22.4999 28.662C22.4999 27.7766 22.1483 26.9276 21.5222 26.3017C20.8964 25.6757 20.0474 25.324 19.162 25.324C18.2768 25.324 17.4278 25.6757 16.8017 26.3017C16.1758 26.9276 15.824 27.7766 15.824 28.662C15.824 29.5472 16.1758 30.3962 16.8017 31.0223C17.4278 31.6482 18.2768 32 19.162 32C20.0474 32 20.8964 31.6482 21.5222 31.0223C22.1483 30.3962 22.4999 29.5472 22.4999 28.662ZM17.6785 28.662C17.6865 28.2709 17.8452 27.8982 18.1218 27.6218C18.3984 27.3452 18.7712 27.1863 19.162 27.1785C19.5555 27.1785 19.933 27.3348 20.2111 27.6129C20.4894 27.8911 20.6457 28.2686 20.6457 28.662C20.6541 29.058 20.5006 29.4403 20.2206 29.7203C19.9405 30.0004 19.5581 30.1541 19.162 30.1455C18.7686 30.1455 18.3913 29.9892 18.1132 29.7111C17.8348 29.4327 17.6785 29.0555 17.6785 28.662Z" fill="black"/>
<path d="M24.3853 13.0232H6.39755L5.68653 9.37611C5.64169 9.19695 5.54898 9.03332 5.41834 8.90268C5.28769 8.77203 5.12406 8.67933 4.94491 8.63448L1.69964 8.0164V8.01619C1.45409 7.97048 1.20034 8.02244 0.992542 8.16085C0.784716 8.29947 0.639195 8.51376 0.587018 8.75801C0.54196 8.9999 0.594563 9.24977 0.733836 9.45264C0.872888 9.65551 1.08697 9.79478 1.32885 9.83983L3.98683 10.3342L6.24296 21.7079V21.7081C6.39905 22.4801 6.816 23.1747 7.42376 23.6757C8.03174 24.1765 8.79337 24.4531 9.58094 24.4588H19.7184C20.4553 24.4618 21.1731 24.2253 21.764 23.7851C22.355 23.3446 22.7868 22.7241 22.9944 22.017L25.2816 14.1667C25.3527 13.8893 25.296 13.5943 25.127 13.3632C24.9455 13.1411 24.6717 13.0157 24.3852 13.0232H24.3853ZM21.2019 21.5226C21.1178 21.849 20.9251 22.137 20.6554 22.3392C20.3857 22.5414 20.0554 22.6458 19.7184 22.6352H9.58098C9.22462 22.6352 8.87945 22.5121 8.60328 22.2868C8.32733 22.0615 8.13783 21.7479 8.06646 21.3988L6.76838 14.8775H23.1489L21.2019 21.5226Z" fill="black"/>
<ellipse cx="28.5" cy="10.6521" rx="10.5" ry="10.4997" fill="#005CFF"/>
<path d="M26.596 14.1524C26.34 14.1524 26.152 14.0964 26.032 13.9844C25.92 13.8644 25.864 13.6924 25.864 13.4684C25.864 13.3324 25.9 13.2004 25.972 13.0724C26.044 12.9444 26.148 12.8084 26.284 12.6644L28.696 10.0964C29.064 9.71238 29.328 9.36438 29.488 9.05238C29.648 8.73238 29.728 8.41238 29.728 8.09238C29.728 7.69238 29.6 7.38838 29.344 7.18038C29.096 6.97238 28.732 6.86838 28.252 6.86838C27.98 6.86838 27.708 6.90838 27.436 6.98838C27.164 7.06038 26.888 7.18838 26.608 7.37238C26.464 7.46838 26.328 7.50838 26.2 7.49238C26.08 7.47638 25.972 7.42438 25.876 7.33638C25.788 7.24838 25.728 7.14038 25.696 7.01238C25.664 6.88438 25.668 6.75638 25.708 6.62838C25.756 6.49238 25.852 6.37638 25.996 6.28038C26.34 6.04838 26.724 5.87238 27.148 5.75238C27.58 5.63238 28.012 5.57238 28.444 5.57238C29.052 5.57238 29.564 5.66438 29.98 5.84838C30.396 6.03238 30.712 6.30038 30.928 6.65238C31.144 7.00438 31.252 7.43238 31.252 7.93638C31.252 8.27238 31.196 8.60038 31.084 8.92038C30.98 9.24038 30.816 9.56438 30.592 9.89238C30.376 10.2204 30.092 10.5684 29.74 10.9364L27.484 13.2884V12.8804H31.012C31.228 12.8804 31.392 12.9324 31.504 13.0364C31.616 13.1404 31.672 13.2964 31.672 13.5044C31.672 13.7124 31.616 13.8724 31.504 13.9844C31.392 14.0964 31.228 14.1524 31.012 14.1524H26.596Z" fill="white"/>
</svg>
